<?xml version="1.0" encoding="iso-8859-1"?>
<!-- Generator: Adobe Illustrator 19.0.0, SVG Export Plug-In . SVG Version: 6.00 Build 0)  -->
<svg version="1.1" id="Capa_1" xmlns="http://www.w3.org/2000/svg" xmlns:xlink="http://www.w3.org/1999/xlink" x="0px" y="0px"
	 viewBox="0 0 507.76 507.76" style="enable-background:new 0 0 507.76 507.76;" xml:space="preserve">
<g>
	<g>
		<g>
			<path d="M274.155,304.059c-6.235-2.833-13.003-4.299-19.851-4.299H208v-32c-0.053-44.161-35.839-79.947-80-80h-16v87.44
				l-36.8,24.56H0v32h84.8l59.2-39.44v-69.824c19.163,6.806,31.975,24.928,32,45.264v64h78.304
				c8.837-0.002,16.002,7.159,16.004,15.996c0.001,2.281-0.486,4.535-1.428,6.612L213.696,475.76H139.76l-64-32H0v32h68.208l64,32
				h102.096L298,367.616C308.966,343.481,298.291,315.026,274.155,304.059z"/>
			<polygon points="507.76,251.76 466.816,195.264 474.064,125.84 410.304,97.456 381.936,33.696 312.496,40.944 256,0 
				199.504,40.944 130.08,33.696 101.712,97.456 37.952,125.84 45.184,195.264 11.04,242.368 36.96,261.152 78.288,204.128 
				72.176,145.616 125.952,121.712 149.872,67.952 208.352,74.048 256,39.52 303.648,74.048 362.128,67.952 386.064,121.712 
				439.824,145.616 433.712,204.128 468.24,251.76 433.712,299.392 439.824,357.904 386.048,381.808 362.128,435.568 
				309.728,430.112 306.4,461.936 381.92,469.824 410.288,406.064 474.048,377.68 466.816,308.256 			"/>
			<path d="M336.932,350.943c-3.158,2.577-6.438,5.001-9.828,7.265l17.792,26.592c73.477-49.088,93.248-148.447,44.159-221.923
				c-2.827-4.232-5.854-8.326-9.071-12.269l-24.784,20.24C399.887,225.625,391.708,306.256,336.932,350.943z"/>
			<path d="M310.752,136c8.576,4.089,16.677,9.106,24.16,14.96l19.744-25.184c-9.332-7.299-19.435-13.555-30.128-18.656L310.752,136
				z"/>
			<path d="M227.52,126.96l-7.072-31.232c-32.364,7.32-61.629,24.579-83.696,49.36l23.84,21.344
				C178.234,146.611,201.637,132.809,227.52,126.96z"/>
			<path d="M290.912,95.584c-11.56-2.544-23.363-3.826-35.2-3.824l0.288,32c9.417,0.007,18.806,1.037,28,3.072L290.912,95.584z"/>
		</g>
	</g>
</g>
<g>
</g>
<g>
</g>
<g>
</g>
<g>
</g>
<g>
</g>
<g>
</g>
<g>
</g>
<g>
</g>
<g>
</g>
<g>
</g>
<g>
</g>
<g>
</g>
<g>
</g>
<g>
</g>
<g>
</g>
</svg>
