<?xml version="1.0" encoding="utf-8"?>
<!-- Generator: Adobe Illustrator 21.1.0, SVG Export Plug-In . SVG Version: 6.00 Build 0)  -->
<svg version="1.1" id="Calque_1" xmlns="http://www.w3.org/2000/svg" xmlns:xlink="http://www.w3.org/1999/xlink" x="0px" y="0px"
	 viewBox="0 0 292 201.3" style="enable-background:new 0 0 292 201.3;" xml:space="preserve">
<style type="text/css">
	.st0{fill:url(#SVGID_1_);}
	.st1{fill:url(#SVGID_2_);}
	.st2{fill:url(#SVGID_3_);}
	.st3{fill:#010202;}
	.st4{fill:#FFFFFF;}
</style>
<g>
	<g>
		<linearGradient id="SVGID_1_" gradientUnits="userSpaceOnUse" x1="152.1329" y1="23.2846" x2="264.6743" y2="139.2424">
			<stop  offset="0" style="stop-color:#E7187F"/>
			<stop  offset="0.2195" style="stop-color:#CB2082"/>
			<stop  offset="0.4766" style="stop-color:#AB2585"/>
			<stop  offset="0.7188" style="stop-color:#9B1E74"/>
		</linearGradient>
		<path class="st0" d="M109.4,50c23.9-23.9,63-23.9,86.9,0l69,69c1.4-6.2,2.2-12.7,2.2-19.4c0-48.2-39.1-87.4-87.4-87.4
			c-31.3,0-58.8,16.5-74.2,41.3L109.4,50z"/>
		<linearGradient id="SVGID_2_" gradientUnits="userSpaceOnUse" x1="198.278" y1="132.1144" x2="264.6222" y2="54.983">
			<stop  offset="2.908420e-02" style="stop-color:#173D6D"/>
			<stop  offset="0.2557" style="stop-color:#0F529B"/>
			<stop  offset="0.9327" style="stop-color:#1AA6CA"/>
		</linearGradient>
		<path class="st1" d="M226.3,26.1c25.2,22.5,27.5,61.5,5,86.7l-64.9,72.9c6.3,1,12.8,1.4,19.4,1c48.2-2.8,84.9-44.1,82.1-92.3
			c-1.8-31.3-19.9-57.8-45.5-71.7L226.3,26.1z"/>
		<linearGradient id="SVGID_3_" gradientUnits="userSpaceOnUse" x1="132.6641" y1="109.8714" x2="249.2654" y2="203.0686">
			<stop  offset="0" style="stop-color:#173D6D"/>
			<stop  offset="0.2462" style="stop-color:#0F529B"/>
			<stop  offset="0.7205" style="stop-color:#21A5CA"/>
		</linearGradient>
		<path class="st2" d="M179.1,189c32.1-0.6,60.2-17.6,75.8-42.7l-3.7,3.7c-24.6,24.6-65.3,24.9-90.3,0.7l-53.5-51.8
			c-1.6,5.6-2.4,11.5-2.4,17.6C105,154.5,137.5,185.7,179.1,189z"/>
	</g>
	<g>
		<path class="st3" d="M57.9,79c0,0.4-0.3,0.7-0.8,0.7H43.9c0.2,4,2.5,5.7,5.4,5.7c1.7,0,2.9-0.6,3.9-2.1c0.2-0.4,0.5-0.5,0.9-0.5
			h2.6c0.6,0,0.8,0.3,0.6,0.8c-1.5,3.6-4.6,5.6-8.3,5.6c-5.4,0-9.4-4.1-9.4-10.3c0-6.3,3.9-10.6,9.7-10.6C55.3,68.3,58.2,73,57.9,79
			z M44.1,76.3h9.4c0-2.2-1.6-4.3-4.6-4.3C45.8,72.1,44.6,74.2,44.1,76.3z"/>
		<path class="st3" d="M78.4,74.4c0.1,0.5-0.1,0.8-0.7,0.8h-2.6c-0.4,0-0.7-0.2-0.8-0.6c-0.9-1.7-2.2-2.5-4.3-2.5c-3,0-5,1.7-5,6.8
			c0,4.8,2.1,6.5,5.3,6.5c2.2,0,3.2-0.9,3.9-2.2c0.2-0.4,0.4-0.6,0.8-0.6h2.6c0.6,0,0.8,0.3,0.6,0.8c-1,2.8-3.8,5.8-8.4,5.8
			c-5.6,0-9.2-4-9.2-10.2c0-6.7,3.8-10.7,9.3-10.7C74.6,68.3,77.7,71.3,78.4,74.4z"/>
		<path class="st3" d="M99.9,78.5c0,6.2-4.2,10.7-9.8,10.7c-5.4,0-9.5-4.3-9.5-10.4c0-6.2,4.2-10.6,9.8-10.6
			C95.9,68.3,99.9,72.4,99.9,78.5z M85,78.4c0,4.2,2.5,6.9,5.6,6.9c2.9,0,5-2.5,5-6.4c0-4.3-2.5-6.9-5.6-6.9
			C87.1,72.1,85,74.5,85,78.4z"/>
		<path class="st4" d="M124.2,64.3c0.5,1.6,1,3.2,1.5,4.9c0.5,1.7,1.1,3.4,1.6,5.1c0.6,1.7,1.1,3.4,1.7,5c0.6,1.6,1.1,3.2,1.6,4.6
			c0.4-1.6,0.9-3.3,1.3-5.1c0.4-1.8,0.8-3.8,1.2-5.7c0.4-2,0.8-4,1.2-6.1c0.4-2.1,0.8-4.1,1.1-6.1h5.7c-1,5.4-2.1,10.7-3.4,15.7
			c-1.2,5-2.6,9.8-4.2,14.4h-5.3c-2.2-5.9-4.4-12.2-6.5-19.2c-1.1,3.5-2.2,6.8-3.3,10c-1.1,3.2-2.2,6.2-3.3,9.2H110
			c-1.6-4.6-3-9.4-4.2-14.4c-1.2-5-2.3-10.3-3.4-15.7h5.9c0.3,2,0.7,4,1.1,6c0.4,2.1,0.8,4.1,1.2,6.1c0.4,2,0.8,3.9,1.3,5.8
			c0.4,1.9,0.9,3.6,1.3,5.1c0.6-1.5,1.1-3,1.7-4.7c0.6-1.6,1.1-3.3,1.7-5c0.6-1.7,1.1-3.4,1.6-5.1c0.5-1.7,1-3.3,1.4-4.9H124.2z"/>
		<path class="st4" d="M145.7,91V60.9H165v4.7h-13.9V73h12.3v4.6h-12.3v8.8h14.9V91H145.7z"/>
		<path class="st4" d="M180.3,91.3c-1.6,0-3.2-0.1-4.8-0.2c-1.6-0.1-3-0.3-4.3-0.6V61.3c0.6-0.1,1.3-0.2,2-0.3
			c0.7-0.1,1.5-0.2,2.2-0.2c0.8-0.1,1.5-0.1,2.2-0.1c0.7,0,1.4,0,2.1,0c1.8,0,3.5,0.1,5.1,0.4c1.6,0.3,2.9,0.7,4.1,1.4
			c1.1,0.6,2,1.5,2.7,2.5c0.6,1,1,2.3,1,3.9c0,1.4-0.3,2.6-1,3.7s-1.6,1.8-2.8,2.4c1.8,0.6,3.2,1.5,4,2.7c0.9,1.2,1.3,2.7,1.3,4.5
			c0,3.1-1.1,5.4-3.4,7C188.4,90.6,184.9,91.3,180.3,91.3z M176.6,73.1h3.9c2.1,0,3.7-0.3,4.9-0.9c1.2-0.6,1.8-1.7,1.8-3.2
			c0-1.4-0.6-2.5-1.8-3.1s-2.8-0.9-4.8-0.9c-0.8,0-1.6,0-2.2,0c-0.7,0-1.2,0.1-1.7,0.1V73.1z M176.6,77.4v9.2c0.6,0.1,1.3,0.1,2,0.1
			c0.7,0,1.3,0,1.9,0c1.1,0,2.2-0.1,3.2-0.2c1-0.1,1.8-0.4,2.5-0.8c0.7-0.4,1.3-0.8,1.7-1.5c0.4-0.6,0.6-1.4,0.6-2.3
			c0-1.7-0.6-2.9-1.9-3.6c-1.2-0.7-3-1-5.2-1H176.6z"/>
	</g>
</g>
</svg>
